<svg width="24" height="21" viewBox="0 0 24 21" xmlns="http://www.w3.org/2000/svg"><path d="M20.095 1.849a5.301 5.301 0 00-2.832-.836c-1.739 0-3.364.856-4.46 2.348L12 4.453l-.803-1.092c-1.095-1.492-2.722-2.348-4.46-2.348a5.3 5.3 0 00-2.832.836C1.119 3.609.17 7.536 1.787 10.604c1.443 2.735 7.996 7.81 9.97 9.3a.398.398 0 00.486 0c1.974-1.49 8.527-6.565 9.97-9.3 1.618-3.068.668-6.995-2.118-8.755M12.84 20.717a1.392 1.392 0 01-1.68 0C8.842 18.967 2.425 13.963.905 11.08-.958 7.547.147 3.029 3.375.989A6.26 6.26 0 016.738 0C8.739 0 10.695.98 12 2.757 13.306.979 15.26 0 17.263 0c1.142 0 2.3.318 3.361.989 3.229 2.04 4.334 6.558 2.47 10.092-1.52 2.882-7.936 7.886-10.254 9.636" fill="#FFF" fill-rule="evenodd"/></svg>